<svg width="282" height="211" xmlns="http://www.w3.org/2000/svg" xmlns:xlink="http://www.w3.org/1999/xlink" overflow="hidden"><g transform="translate(-280 -88)"><path d="M281.5 119.864 281.5 119.864C281.5 108.617 290.678 99.5001 302 99.5001L384 99.5001 384 99.5001C389.437 99.5001 394.651 101.646 398.496 105.465 402.34 109.284 404.5 114.463 404.5 119.864L404.5 273.136C404.5 284.383 395.322 293.5 384 293.5L302 293.5C290.678 293.5 281.5 284.383 281.5 273.136Z" stroke="#000000" stroke-width="0.731234" stroke-linejoin="round" stroke-miterlimit="10" stroke-dasharray="1.60412 1.20309" fill="none" fill-rule="evenodd"/><path d="M342.5 219.5 389.5 219.5 389.5 290.5 342.5 290.5Z" stroke="#000000" stroke-width="0.731234" stroke-linejoin="round" stroke-miterlimit="10" fill="none" fill-rule="evenodd"/><path d="M312.405 261 371.595 261C372.498 261 373.364 261.351 374.003 261.976 374.641 262.601 375 263.449 375 264.333L375 277.667C375 279.508 373.476 281 371.595 281L312.405 281C310.524 281 309 279.508 309 277.667L309 264.333C309 262.492 310.524 261 312.405 261Z" fill="#F3F3F3" fill-rule="evenodd"/><path d="M309.5 264.833 309.5 264.833C309.5 262.992 311.025 261.5 312.905 261.5L372.095 261.5C372.998 261.5 373.864 261.851 374.503 262.476 375.141 263.102 375.5 263.949 375.5 264.833L375.5 278.167C375.5 280.008 373.976 281.5 372.095 281.5L312.905 281.5C311.025 281.5 309.5 280.008 309.5 278.167Z" stroke="#000000" stroke-width="0.731234" stroke-linejoin="round" stroke-miterlimit="10" fill="none" fill-rule="evenodd"/><text font-family="Arial,Arial_MSFontService,sans-serif" font-weight="400" font-size="7" transform="translate(322.597 269)">Multi</text><text font-family="Arial,Arial_MSFontService,sans-serif" font-weight="400" font-size="7" transform="translate(336.597 269)">-</text><text font-family="Arial,Arial_MSFontService,sans-serif" font-weight="400" font-size="7" transform="translate(338.764 269)">headed</text><text font-family="Arial,Arial_MSFontService,sans-serif" font-weight="400" font-size="7" transform="translate(329.229 277)">attention</text><path d="M318.298 193 366.702 193C367.311 193 367.896 193.246 368.327 193.683 368.758 194.121 369 194.715 369 195.333L369 204.667C369 205.955 367.971 207 366.702 207L318.298 207C317.029 207 316 205.955 316 204.667L316 195.333C316 194.045 317.029 193 318.298 193Z" fill="#D9EAD3" fill-rule="evenodd"/><path d="M316.5 195.833 316.5 195.833C316.5 194.545 317.529 193.5 318.798 193.5L367.202 193.5C367.811 193.5 368.396 193.746 368.827 194.184 369.258 194.621 369.5 195.215 369.5 195.833L369.5 205.167C369.5 206.455 368.471 207.5 367.202 207.5L318.798 207.5C317.529 207.5 316.5 206.455 316.5 205.167Z" stroke="#000000" stroke-width="0.731234" stroke-linejoin="round" stroke-miterlimit="10" fill="none" fill-rule="evenodd"/><text font-family="Arial,Arial_MSFontService,sans-serif" font-weight="400" font-size="7" transform="translate(324.498 202)">Layer Norm</text><path d="M342.5 298.5 343.5 285.5" stroke="#000000" stroke-width="0.731234" stroke-linejoin="round" stroke-miterlimit="10" fill="none" fill-rule="evenodd"/><path d="M342.525 282.5 343.5 285.5 341.5 285.48 342.525 282.5Z" stroke="#000000" stroke-width="0.731234" stroke-miterlimit="1.27" fill-rule="evenodd"/><path d="M342.5 261.5 342.5 211.5" stroke="#000000" stroke-width="0.731234" stroke-linejoin="round" stroke-miterlimit="10" fill="none" fill-rule="evenodd"/><path d="M343 208.5 344.5 211.5 341.5 211.5 343 208.5Z" stroke="#000000" stroke-width="0.731234" stroke-miterlimit="1.27" fill-rule="evenodd"/><path d="M342 214C343.591 214 345.117 214.579 346.243 215.611 347.368 216.642 348 218.041 348 219.5 348 222.538 345.314 225 342 225 338.686 225 336 222.538 336 219.5 336 216.462 338.686 214 342 214Z" fill="#FFFFFF" fill-rule="evenodd"/><path d="M336.5 220 336.5 220C336.5 216.962 339.186 214.5 342.5 214.5L342.5 214.5C344.091 214.5 345.617 215.079 346.743 216.111 347.868 217.142 348.5 218.541 348.5 220L348.5 220C348.5 223.038 345.814 225.5 342.5 225.5L342.5 225.5C339.186 225.5 336.5 223.038 336.5 220Z" stroke="#000000" stroke-width="0.731234" stroke-linejoin="round" stroke-miterlimit="10" fill="none" fill-rule="evenodd"/><text font-family="Arial,Arial_MSFontService,sans-serif" font-weight="400" font-size="7" transform="translate(339.985 222)">+</text><path d="M322.014 228 362.986 228C363.52 228 364.033 228.211 364.41 228.586 364.788 228.961 365 229.47 365 230L365 238C365 239.105 364.098 240 362.986 240L322.014 240C320.902 240 320 239.105 320 238L320 230C320 228.895 320.902 228 322.014 228Z" fill="#FFFDF0" fill-rule="evenodd"/><path d="M320.5 230.5 320.5 230.5C320.5 229.396 321.402 228.5 322.514 228.5L363.486 228.5C364.02 228.5 364.533 228.711 364.91 229.086 365.288 229.461 365.5 229.97 365.5 230.5L365.5 238.5C365.5 239.605 364.598 240.5 363.486 240.5L322.514 240.5C321.402 240.5 320.5 239.605 320.5 238.5Z" stroke="#000000" stroke-width="0.731234" stroke-linejoin="round" stroke-miterlimit="10" fill="none" fill-rule="evenodd"/><text font-family="Arial,Arial_MSFontService,sans-serif" font-weight="400" font-size="7" transform="translate(330.367 236)">Adapter</text><path d="M342.5 130.5 389.5 130.5 389.5 186.5 342.5 186.5Z" stroke="#000000" stroke-width="0.731234" stroke-linejoin="round" stroke-miterlimit="10" fill="none" fill-rule="evenodd"/><path d="M312.405 157 371.595 157C372.498 157 373.364 157.351 374.003 157.976 374.641 158.601 375 159.449 375 160.333L375 173.667C375 175.508 373.476 177 371.595 177L312.405 177C310.524 177 309 175.508 309 173.667L309 160.333C309 158.492 310.524 157 312.405 157Z" fill="#F3F3F3" fill-rule="evenodd"/><path d="M309.5 160.833 309.5 160.833C309.5 158.992 311.025 157.5 312.905 157.5L372.095 157.5C372.998 157.5 373.864 157.851 374.503 158.476 375.141 159.102 375.5 159.949 375.5 160.833L375.5 174.167C375.5 176.008 373.976 177.5 372.095 177.5L312.905 177.5C311.025 177.5 309.5 176.008 309.5 174.167Z" stroke="#000000" stroke-width="0.731234" stroke-linejoin="round" stroke-miterlimit="10" fill="none" fill-rule="evenodd"/><text font-family="Arial,Arial_MSFontService,sans-serif" font-weight="400" font-size="7" transform="translate(321.278 165)">x Feed</text><text font-family="Arial,Arial_MSFontService,sans-serif" font-weight="400" font-size="7" transform="translate(341.444 165)">-</text><text font-family="Arial,Arial_MSFontService,sans-serif" font-weight="400" font-size="7" transform="translate(343.611 165)">forward</text><text font-family="Arial,Arial_MSFontService,sans-serif" font-weight="400" font-size="7" transform="translate(317.484 165)">2</text><text font-family="Arial,Arial_MSFontService,sans-serif" font-weight="400" font-size="7" transform="translate(334.919 173)">layer</text><path d="M318.298 103 366.702 103C367.311 103 367.896 103.246 368.327 103.683 368.758 104.121 369 104.715 369 105.333L369 114.667C369 115.955 367.971 117 366.702 117L318.298 117C317.029 117 316 115.955 316 114.667L316 105.333C316 104.045 317.029 103 318.298 103Z" fill="#D9EAD3" fill-rule="evenodd"/><path d="M316.5 105.833 316.5 105.833C316.5 104.545 317.529 103.5 318.798 103.5L367.202 103.5C367.811 103.5 368.396 103.746 368.827 104.184 369.258 104.621 369.5 105.215 369.5 105.833L369.5 115.167C369.5 116.455 368.471 117.5 367.202 117.5L318.798 117.5C317.529 117.5 316.5 116.455 316.5 115.167Z" stroke="#000000" stroke-width="0.731234" stroke-linejoin="round" stroke-miterlimit="10" fill="none" fill-rule="evenodd"/><text font-family="Arial,Arial_MSFontService,sans-serif" font-weight="400" font-size="7" transform="translate(324.424 112)">Layer Norm</text><path d="M342.5 193.5 342.5 182.5" stroke="#000000" stroke-width="0.731234" stroke-linejoin="round" stroke-miterlimit="10" fill="none" fill-rule="evenodd"/><path d="M343 178.5 344.5 182.5 341.5 182.5 343 178.5Z" stroke="#000000" stroke-width="0.731234" stroke-miterlimit="1.27" fill-rule="evenodd"/><path d="M343.5 157.5 342.5 121.5" stroke="#000000" stroke-width="0.731234" stroke-linejoin="round" stroke-miterlimit="10" fill="none" fill-rule="evenodd"/><path d="M342.495 118.5 343.5 121.496 341.5 121.5 342.495 118.5Z" stroke="#000000" stroke-width="0.731234" stroke-miterlimit="1.27" fill-rule="evenodd"/><path d="M342 125C343.591 125 345.117 125.579 346.243 126.611 347.368 127.642 348 129.041 348 130.5 348 133.538 345.314 136 342 136 338.686 136 336 133.538 336 130.5 336 127.462 338.686 125 342 125Z" fill="#FFFFFF" fill-rule="evenodd"/><path d="M336.5 131 336.5 131C336.5 127.962 339.186 125.5 342.5 125.5L342.5 125.5C344.091 125.5 345.617 126.079 346.743 127.111 347.868 128.142 348.5 129.541 348.5 131L348.5 131C348.5 134.038 345.814 136.5 342.5 136.5L342.5 136.5C339.186 136.5 336.5 134.038 336.5 131Z" stroke="#000000" stroke-width="0.731234" stroke-linejoin="round" stroke-miterlimit="10" fill="none" fill-rule="evenodd"/><text font-family="Arial,Arial_MSFontService,sans-serif" font-weight="400" font-size="7" transform="translate(339.985 133)">+</text><path d="M322.014 140 362.986 140C363.52 140 364.033 140.211 364.41 140.586 364.788 140.961 365 141.47 365 142L365 150C365 151.105 364.098 152 362.986 152L322.014 152C320.902 152 320 151.105 320 150L320 142C320 140.895 320.902 140 322.014 140Z" fill="#FFFDF0" fill-rule="evenodd"/><path d="M320.5 142.5 320.5 142.5C320.5 141.396 321.402 140.5 322.514 140.5L363.486 140.5C364.02 140.5 364.533 140.711 364.91 141.086 365.288 141.461 365.5 141.97 365.5 142.5L365.5 150.5C365.5 151.605 364.598 152.5 363.486 152.5L322.514 152.5C321.402 152.5 320.5 151.605 320.5 150.5Z" stroke="#000000" stroke-width="0.731234" stroke-linejoin="round" stroke-miterlimit="10" fill="none" fill-rule="evenodd"/><text font-family="Arial,Arial_MSFontService,sans-serif" font-weight="400" font-size="7" transform="translate(330.367 149)">Adapter</text><path d="M343.5 103.5 342.5 95.5001" stroke="#000000" stroke-width="0.731234" stroke-linejoin="round" stroke-miterlimit="10" fill="none" fill-rule="evenodd"/><path d="M342.479 92.5001 343.5 95.4837 341.5 95.5001 342.479 92.5001Z" stroke="#000000" stroke-width="0.731234" stroke-miterlimit="1.27" fill-rule="evenodd"/><path d="M311.317 244 372.683 244C373.298 244 373.887 244.228 374.321 244.635 374.756 245.041 375 245.592 375 246.167L375 254.833C375 256.03 373.963 257 372.683 257L311.317 257C310.037 257 309 256.03 309 254.833L309 246.167C309 244.97 310.037 244 311.317 244Z" fill="#F3F3F3" fill-rule="evenodd"/><path d="M309.5 246.667 309.5 246.667C309.5 245.47 310.537 244.5 311.817 244.5L373.183 244.5C373.798 244.5 374.387 244.728 374.822 245.135 375.256 245.541 375.5 246.092 375.5 246.667L375.5 255.333C375.5 256.53 374.463 257.5 373.183 257.5L311.817 257.5C310.537 257.5 309.5 256.53 309.5 255.333Z" stroke="#000000" stroke-width="0.731234" stroke-linejoin="round" stroke-miterlimit="10" fill="none" fill-rule="evenodd"/><text font-family="Arial,Arial_MSFontService,sans-serif" font-weight="400" font-size="7" transform="translate(313.694 253)">Feed</text><text font-family="Arial,Arial_MSFontService,sans-serif" font-weight="400" font-size="7" transform="translate(328.694 253)">-</text><text font-family="Arial,Arial_MSFontService,sans-serif" font-weight="400" font-size="7" transform="translate(330.861 253)">forward layer</text><text font-family="Arial,Arial_MSFontService,sans-serif" font-weight="400" font-size="7" transform="translate(287.1 128)">Transformer</text><text font-family="Arial,Arial_MSFontService,sans-serif" font-weight="400" font-size="7" transform="translate(287.1 136)">Layer</text><path d="M457.667 102 540.333 102C545.814 102 551.071 104.164 554.947 108.016 558.823 111.868 561 117.093 561 122.54L561 265.46C561 276.804 551.747 286 540.333 286L457.667 286C446.253 286 437 276.804 437 265.46L437 122.54C437 111.196 446.253 102 457.667 102Z" fill="#FFFDF0" fill-rule="evenodd"/><path d="M437.5 123.04 437.5 123.04C437.5 111.696 446.753 102.5 458.167 102.5L540.833 102.5 540.833 102.5C546.314 102.5 551.571 104.664 555.447 108.516 559.323 112.368 561.5 117.593 561.5 123.04L561.5 265.96C561.5 277.304 552.247 286.5 540.833 286.5L458.167 286.5C446.753 286.5 437.5 277.304 437.5 265.96Z" stroke="#000000" stroke-width="0.731234" stroke-linejoin="round" stroke-miterlimit="10" stroke-dasharray="1.60412 1.20309" fill="none" fill-rule="evenodd"/><path d="M496.5 117.5 547.5 117.5 547.5 279.5 496.5 279.5Z" stroke="#000000" stroke-width="0.731234" stroke-linejoin="round" stroke-miterlimit="10" fill="none" fill-rule="evenodd"/><path d="M496.5 295.5 497.5 276.5" stroke="#000000" stroke-width="0.731234" stroke-linejoin="round" stroke-miterlimit="10" fill="none" fill-rule="evenodd"/><path d="M497.06 272.5 498.5 276.5 495.5 276.458 497.06 272.5Z" stroke="#000000" stroke-width="0.731234" stroke-miterlimit="1.27" fill-rule="evenodd"/><path d="M497.5 127.5 496.5 93.5001" stroke="#000000" stroke-width="0.731234" stroke-linejoin="round" stroke-miterlimit="10" fill="none" fill-rule="evenodd"/><path d="M496.973 89.5001 498.5 93.4807 495.5 93.5001 496.973 89.5001Z" stroke="#000000" stroke-width="0.731234" stroke-miterlimit="1.27" fill-rule="evenodd"/><path d="M456 259 537 259 537 271 456 271 456 259" fill="#FFFFFF" fill-rule="evenodd"/><path d="M456.5 259.5 537.5 259.5 537.5 271.5 456.5 271.5Z" stroke="#000000" stroke-width="0.731234" stroke-linejoin="round" stroke-miterlimit="10" fill="none" fill-rule="evenodd"/><path d="M464.5 262C465.428 262 466.319 262.369 466.975 263.025 467.631 263.682 468 264.572 468 265.5 468 267.433 466.433 269 464.5 269 462.567 269 461 267.433 461 265.5 461 263.567 462.567 262 464.5 262Z" fill="#FFFFFF" fill-rule="evenodd"/><path d="M461.5 266 461.5 266C461.5 264.067 463.067 262.5 465 262.5L465 262.5C465.928 262.5 466.819 262.869 467.475 263.525 468.131 264.182 468.5 265.072 468.5 266L468.5 266C468.5 267.933 466.933 269.5 465 269.5L465 269.5C463.067 269.5 461.5 267.933 461.5 266Z" stroke="#000000" stroke-width="0.731234" stroke-linejoin="round" stroke-miterlimit="10" fill="none" fill-rule="evenodd"/><path d="M477 262C478.061 262 479.078 262.369 479.828 263.025 480.579 263.682 481 264.572 481 265.5 481 267.433 479.209 269 477 269 474.791 269 473 267.433 473 265.5 473 263.567 474.791 262 477 262Z" fill="#FFFFFF" fill-rule="evenodd"/><path d="M473.5 266 473.5 266C473.5 264.067 475.291 262.5 477.5 262.5L477.5 262.5C478.561 262.5 479.578 262.869 480.328 263.525 481.079 264.182 481.5 265.072 481.5 266L481.5 266C481.5 267.933 479.709 269.5 477.5 269.5L477.5 269.5C475.291 269.5 473.5 267.933 473.5 266Z" stroke="#000000" stroke-width="0.731234" stroke-linejoin="round" stroke-miterlimit="10" fill="none" fill-rule="evenodd"/><path d="M490 262C491.061 262 492.078 262.369 492.828 263.025 493.579 263.682 494 264.572 494 265.5 494 267.433 492.209 269 490 269 487.791 269 486 267.433 486 265.5 486 263.567 487.791 262 490 262Z" fill="#FFFFFF" fill-rule="evenodd"/><path d="M486.5 266 486.5 266C486.5 264.067 488.291 262.5 490.5 262.5L490.5 262.5C491.561 262.5 492.578 262.869 493.328 263.525 494.079 264.182 494.5 265.072 494.5 266L494.5 266C494.5 267.933 492.709 269.5 490.5 269.5L490.5 269.5C488.291 269.5 486.5 267.933 486.5 266Z" stroke="#000000" stroke-width="0.731234" stroke-linejoin="round" stroke-miterlimit="10" fill="none" fill-rule="evenodd"/><path d="M502 262C503.061 262 504.078 262.369 504.828 263.025 505.579 263.682 506 264.572 506 265.5 506 267.433 504.209 269 502 269 499.791 269 498 267.433 498 265.5 498 263.567 499.791 262 502 262Z" fill="#FFFFFF" fill-rule="evenodd"/><path d="M498.5 266 498.5 266C498.5 264.067 500.291 262.5 502.5 262.5L502.5 262.5C503.561 262.5 504.578 262.869 505.328 263.525 506.079 264.182 506.5 265.072 506.5 266L506.5 266C506.5 267.933 504.709 269.5 502.5 269.5L502.5 269.5C500.291 269.5 498.5 267.933 498.5 266Z" stroke="#000000" stroke-width="0.731234" stroke-linejoin="round" stroke-miterlimit="10" fill="none" fill-rule="evenodd"/><path d="M515 262C516.061 262 517.078 262.369 517.828 263.025 518.579 263.682 519 264.572 519 265.5 519 267.433 517.209 269 515 269 512.791 269 511 267.433 511 265.5 511 263.567 512.791 262 515 262Z" fill="#FFFFFF" fill-rule="evenodd"/><path d="M511.5 266 511.5 266C511.5 264.067 513.291 262.5 515.5 262.5L515.5 262.5C516.561 262.5 517.578 262.869 518.328 263.525 519.079 264.182 519.5 265.072 519.5 266L519.5 266C519.5 267.933 517.709 269.5 515.5 269.5L515.5 269.5C513.291 269.5 511.5 267.933 511.5 266Z" stroke="#000000" stroke-width="0.731234" stroke-linejoin="round" stroke-miterlimit="10" fill="none" fill-rule="evenodd"/><path d="M527.5 262C528.428 262 529.319 262.369 529.975 263.025 530.631 263.682 531 264.572 531 265.5 531 267.433 529.433 269 527.5 269 525.567 269 524 267.433 524 265.5 524 263.567 525.567 262 527.5 262Z" fill="#FFFFFF" fill-rule="evenodd"/><path d="M524.5 266 524.5 266C524.5 264.067 526.067 262.5 528 262.5L528 262.5C528.928 262.5 529.819 262.869 530.475 263.525 531.131 264.182 531.5 265.072 531.5 266L531.5 266C531.5 267.933 529.933 269.5 528 269.5L528 269.5C526.067 269.5 524.5 267.933 524.5 266Z" stroke="#000000" stroke-width="0.731234" stroke-linejoin="round" stroke-miterlimit="10" fill="none" fill-rule="evenodd"/><path d="M456 127 537 127 537 138 456 138 456 127" fill="#FFFFFF" fill-rule="evenodd"/><path d="M456.5 127.5 537.5 127.5 537.5 138.5 456.5 138.5Z" stroke="#000000" stroke-width="0.731234" stroke-linejoin="round" stroke-miterlimit="10" fill="none" fill-rule="evenodd"/><path d="M465 129C466.061 129 467.078 129.369 467.828 130.025 468.579 130.681 469 131.572 469 132.5 469 134.433 467.209 136 465 136 462.791 136 461 134.433 461 132.5 461 130.567 462.791 129 465 129Z" fill="#FFFFFF" fill-rule="evenodd"/><path d="M461.5 133 461.5 133C461.5 131.067 463.291 129.5 465.5 129.5L465.5 129.5C466.561 129.5 467.578 129.869 468.328 130.525 469.079 131.182 469.5 132.072 469.5 133L469.5 133C469.5 134.933 467.709 136.5 465.5 136.5L465.5 136.5C463.291 136.5 461.5 134.933 461.5 133Z" stroke="#000000" stroke-width="0.731234" stroke-linejoin="round" stroke-miterlimit="10" fill="none" fill-rule="evenodd"/><path d="M477 129C478.061 129 479.078 129.369 479.828 130.025 480.579 130.681 481 131.572 481 132.5 481 134.433 479.209 136 477 136 474.791 136 473 134.433 473 132.5 473 130.567 474.791 129 477 129Z" fill="#FFFFFF" fill-rule="evenodd"/><path d="M473.5 133 473.5 133C473.5 131.067 475.291 129.5 477.5 129.5L477.5 129.5C478.561 129.5 479.578 129.869 480.328 130.525 481.079 131.182 481.5 132.072 481.5 133L481.5 133C481.5 134.933 479.709 136.5 477.5 136.5L477.5 136.5C475.291 136.5 473.5 134.933 473.5 133Z" stroke="#000000" stroke-width="0.731234" stroke-linejoin="round" stroke-miterlimit="10" fill="none" fill-rule="evenodd"/><path d="M490 129C491.061 129 492.078 129.369 492.828 130.025 493.579 130.681 494 131.572 494 132.5 494 134.433 492.209 136 490 136 487.791 136 486 134.433 486 132.5 486 130.567 487.791 129 490 129Z" fill="#FFFFFF" fill-rule="evenodd"/><path d="M486.5 133 486.5 133C486.5 131.067 488.291 129.5 490.5 129.5L490.5 129.5C491.561 129.5 492.578 129.869 493.328 130.525 494.079 131.182 494.5 132.072 494.5 133L494.5 133C494.5 134.933 492.709 136.5 490.5 136.5L490.5 136.5C488.291 136.5 486.5 134.933 486.5 133Z" stroke="#000000" stroke-width="0.731234" stroke-linejoin="round" stroke-miterlimit="10" fill="none" fill-rule="evenodd"/><path d="M502.5 129C503.428 129 504.318 129.369 504.975 130.025 505.631 130.681 506 131.572 506 132.5 506 134.433 504.433 136 502.5 136 500.567 136 499 134.433 499 132.5 499 130.567 500.567 129 502.5 129Z" fill="#FFFFFF" fill-rule="evenodd"/><path d="M499.5 133 499.5 133C499.5 131.067 501.067 129.5 503 129.5L503 129.5C503.928 129.5 504.819 129.869 505.475 130.525 506.131 131.182 506.5 132.072 506.5 133L506.5 133C506.5 134.933 504.933 136.5 503 136.5L503 136.5C501.067 136.5 499.5 134.933 499.5 133Z" stroke="#000000" stroke-width="0.731234" stroke-linejoin="round" stroke-miterlimit="10" fill="none" fill-rule="evenodd"/><path d="M515 129C516.061 129 517.078 129.369 517.828 130.025 518.579 130.681 519 131.572 519 132.5 519 134.433 517.209 136 515 136 512.791 136 511 134.433 511 132.5 511 130.567 512.791 129 515 129Z" fill="#FFFFFF" fill-rule="evenodd"/><path d="M511.5 133 511.5 133C511.5 131.067 513.291 129.5 515.5 129.5L515.5 129.5C516.561 129.5 517.578 129.869 518.328 130.525 519.079 131.182 519.5 132.072 519.5 133L519.5 133C519.5 134.933 517.709 136.5 515.5 136.5L515.5 136.5C513.291 136.5 511.5 134.933 511.5 133Z" stroke="#000000" stroke-width="0.731234" stroke-linejoin="round" stroke-miterlimit="10" fill="none" fill-rule="evenodd"/><path d="M527.5 129C528.428 129 529.319 129.369 529.975 130.025 530.631 130.681 531 131.572 531 132.5 531 134.433 529.433 136 527.5 136 525.567 136 524 134.433 524 132.5 524 130.567 525.567 129 527.5 129Z" fill="#FFFFFF" fill-rule="evenodd"/><path d="M524.5 133 524.5 133C524.5 131.067 526.067 129.5 528 129.5L528 129.5C528.928 129.5 529.819 129.869 530.475 130.525 531.131 131.182 531.5 132.072 531.5 133L531.5 133C531.5 134.933 529.933 136.5 528 136.5L528 136.5C526.067 136.5 524.5 134.933 524.5 133Z" stroke="#000000" stroke-width="0.731234" stroke-linejoin="round" stroke-miterlimit="10" fill="none" fill-rule="evenodd"/><path d="M482 208 511 208 511 220 482 220 482 208" fill="#FFFFFF" fill-rule="evenodd"/><path d="M482.5 208.5 511.5 208.5 511.5 220.5 482.5 220.5Z" stroke="#000000" stroke-width="0.731234" stroke-linejoin="round" stroke-miterlimit="10" fill="none" fill-rule="evenodd"/><path d="M490.5 210C491.428 210 492.319 210.421 492.975 211.172 493.631 211.922 494 212.939 494 214 494 216.209 492.433 218 490.5 218 488.567 218 487 216.209 487 214 487 211.791 488.567 210 490.5 210Z" fill="#FFFFFF" fill-rule="evenodd"/><path d="M487.5 214.5 487.5 214.5C487.5 212.291 489.067 210.5 491 210.5L491 210.5C491.928 210.5 492.819 210.921 493.475 211.672 494.131 212.422 494.5 213.439 494.5 214.5L494.5 214.5C494.5 216.709 492.933 218.5 491 218.5L491 218.5C489.067 218.5 487.5 216.709 487.5 214.5Z" stroke="#000000" stroke-width="0.731234" stroke-linejoin="round" stroke-miterlimit="10" fill="none" fill-rule="evenodd"/><path d="M503 210C504.061 210 505.078 210.421 505.828 211.172 506.579 211.922 507 212.939 507 214 507 216.209 505.209 218 503 218 500.791 218 499 216.209 499 214 499 211.791 500.791 210 503 210Z" fill="#FFFFFF" fill-rule="evenodd"/><path d="M499.5 214.5 499.5 214.5C499.5 212.291 501.291 210.5 503.5 210.5L503.5 210.5C504.561 210.5 505.578 210.921 506.328 211.672 507.079 212.422 507.5 213.439 507.5 214.5L507.5 214.5C507.5 216.709 505.709 218.5 503.5 218.5L503.5 218.5C501.291 218.5 499.5 216.709 499.5 214.5Z" stroke="#000000" stroke-width="0.731234" stroke-linejoin="round" stroke-miterlimit="10" fill="none" fill-rule="evenodd"/><path d="M469.135 176 523.865 176C524.962 176 526.014 176.457 526.789 177.269 527.564 178.082 528 179.184 528 180.333L528 197.667C528 200.06 526.149 202 523.865 202L469.135 202C466.851 202 465 200.06 465 197.667L465 180.333C465 177.94 466.851 176 469.135 176Z" fill="#D9EAD3" fill-rule="evenodd"/><path d="M465.5 180.833 465.5 180.833C465.5 178.44 467.351 176.5 469.635 176.5L524.365 176.5C525.462 176.5 526.514 176.957 527.289 177.769 528.065 178.582 528.5 179.684 528.5 180.833L528.5 198.167C528.5 200.56 526.649 202.5 524.365 202.5L469.635 202.5 469.635 202.5C467.351 202.5 465.5 200.56 465.5 198.167Z" stroke="#000000" stroke-width="0.731234" stroke-linejoin="round" stroke-miterlimit="10" fill="none" fill-rule="evenodd"/><text font-family="Arial,Arial_MSFontService,sans-serif" font-weight="400" font-size="7" transform="translate(478.545 191)">Nonlinearity</text><path d="M469.135 145 523.865 145C524.962 145 526.014 145.439 526.789 146.22 527.564 147.002 528 148.062 528 149.167L528 165.833C528 168.135 526.149 170 523.865 170L469.135 170C466.851 170 465 168.135 465 165.833L465 149.167C465 146.865 466.851 145 469.135 145Z" fill="#D9EAD3" fill-rule="evenodd"/><path d="M465.5 149.667 465.5 149.667C465.5 147.366 467.351 145.5 469.635 145.5L524.365 145.5C525.462 145.5 526.514 145.939 527.289 146.72 528.065 147.502 528.5 148.562 528.5 149.667L528.5 166.333C528.5 168.635 526.649 170.5 524.365 170.5L469.635 170.5 469.635 170.5C467.351 170.5 465.5 168.635 465.5 166.333Z" stroke="#000000" stroke-width="0.731234" stroke-linejoin="round" stroke-miterlimit="10" fill="none" fill-rule="evenodd"/><text font-family="Arial,Arial_MSFontService,sans-serif" font-weight="400" font-size="7" transform="translate(477.408 156)">Feedforward</text><text font-family="Arial,Arial_MSFontService,sans-serif" font-weight="400" font-size="7" transform="translate(481.387 164)">up</text><text font-family="Arial,Arial_MSFontService,sans-serif" font-weight="400" font-size="7" transform="translate(488.72 164)">-</text><text font-family="Arial,Arial_MSFontService,sans-serif" font-weight="400" font-size="7" transform="translate(490.887 164)">project</text><path d="M469.135 227 523.865 227C524.962 227 526.014 227.439 526.789 228.22 527.564 229.002 528 230.062 528 231.167L528 247.833C528 250.135 526.149 252 523.865 252L469.135 252C466.851 252 465 250.135 465 247.833L465 231.167C465 228.865 466.851 227 469.135 227Z" fill="#D9EAD3" fill-rule="evenodd"/><path d="M465.5 231.667 465.5 231.667C465.5 229.366 467.351 227.5 469.635 227.5L524.365 227.5C525.462 227.5 526.514 227.939 527.289 228.72 528.065 229.502 528.5 230.562 528.5 231.667L528.5 248.333C528.5 250.635 526.649 252.5 524.365 252.5L469.635 252.5 469.635 252.5C467.351 252.5 465.5 250.635 465.5 248.333Z" stroke="#000000" stroke-width="0.731234" stroke-linejoin="round" stroke-miterlimit="10" fill="none" fill-rule="evenodd"/><text font-family="Arial,Arial_MSFontService,sans-serif" font-weight="400" font-size="7" transform="translate(477.408 238)">Feedforward</text><text font-family="Arial,Arial_MSFontService,sans-serif" font-weight="400" font-size="7" transform="translate(477.028 246)">down</text><text font-family="Arial,Arial_MSFontService,sans-serif" font-weight="400" font-size="7" transform="translate(492.861 246)">-</text><text font-family="Arial,Arial_MSFontService,sans-serif" font-weight="400" font-size="7" transform="translate(495.028 246)">project</text><path d="M497.5 259.5 497.5 252.5" stroke="#000000" stroke-width="0.731234" stroke-linejoin="round" stroke-miterlimit="10" fill="none" fill-rule="evenodd"/><path d="M497.5 227.5 498.5 220.5" stroke="#000000" stroke-width="0.731234" stroke-linejoin="round" stroke-miterlimit="10" fill="none" fill-rule="evenodd"/><path d="M497.5 202.5 498.5 208.5" stroke="#000000" stroke-width="0.731234" stroke-linejoin="round" stroke-miterlimit="10" fill="none" fill-rule="evenodd"/><text font-family="Arial,Arial_MSFontService,sans-serif" font-weight="400" font-size="7" transform="translate(447.77 114)">Adapter</text><text font-family="Arial,Arial_MSFontService,sans-serif" font-weight="400" font-size="7" transform="translate(447.77 122)">Layer</text><path d="M497.5 177.5 497.5 170.5" stroke="#000000" stroke-width="0.731234" stroke-linejoin="round" stroke-miterlimit="10" fill="none" fill-rule="evenodd"/><path d="M497.5 145.5 498.5 138.5" stroke="#000000" stroke-width="0.731234" stroke-linejoin="round" stroke-miterlimit="10" fill="none" fill-rule="evenodd"/><path d="M496.5 112C498.224 112 499.877 112.58 501.096 113.611 502.315 114.642 503 116.041 503 117.5 503 120.538 500.09 123 496.5 123 492.91 123 490 120.538 490 117.5 490 114.462 492.91 112 496.5 112Z" fill="#FFFFFF" fill-rule="evenodd"/><path d="M490.5 118 490.5 118C490.5 114.963 493.41 112.5 497 112.5L497 112.5C498.724 112.5 500.377 113.08 501.596 114.111 502.815 115.142 503.5 116.541 503.5 118L503.5 118C503.5 121.038 500.59 123.5 497 123.5L497 123.5C493.41 123.5 490.5 121.038 490.5 118Z" stroke="#000000" stroke-width="0.731234" stroke-linejoin="round" stroke-miterlimit="10" fill="none" fill-rule="evenodd"/><text font-family="Arial,Arial_MSFontService,sans-serif" font-weight="400" font-size="7" transform="translate(493.709 119)">+</text></g></svg>